<svg width="48" height="48" viewBox="0 0 48 48" fill="none" xmlns="http://www.w3.org/2000/svg">
<path d="M24 26.3999C30.6274 26.3999 36 21.0273 36 14.3999C36 7.77249 30.6274 2.3999 24 2.3999C17.3726 2.3999 12 7.77249 12 14.3999C12 21.0273 17.3726 26.3999 24 26.3999Z" fill="#0000FF" stroke="white"/>
<path d="M14.4 43.2C21.0274 43.2 26.4 37.8274 26.4 31.2C26.4 24.5725 21.0274 19.2 14.4 19.2C7.77258 19.2 2.39999 24.5725 2.39999 31.2C2.39999 37.8274 7.77258 43.2 14.4 43.2Z" fill="#0000FF" stroke="white"/>
<path d="M33.6 43.2C40.2274 43.2 45.6 37.8274 45.6 31.2C45.6 24.5725 40.2274 19.2 33.6 19.2C26.9726 19.2 21.6 24.5725 21.6 31.2C21.6 37.8274 26.9726 43.2 33.6 43.2Z" fill="#0000FF" stroke="white"/>
</svg>
