<svg width="16" height="16" viewBox="0 0 16 16" fill="none" xmlns="http://www.w3.org/2000/svg">
<path d="M8 8.80005C10.2091 8.80005 12 7.00919 12 4.80005C12 2.59091 10.2091 0.800049 8 0.800049C5.79086 0.800049 4 2.59091 4 4.80005C4 7.00919 5.79086 8.80005 8 8.80005Z" fill="black"/>
<path d="M4.8 14.3999C7.00914 14.3999 8.8 12.609 8.8 10.3999C8.8 8.19076 7.00914 6.3999 4.8 6.3999C2.59086 6.3999 0.799999 8.19076 0.799999 10.3999C0.799999 12.609 2.59086 14.3999 4.8 14.3999Z" fill="black"/>
<path d="M11.2 14.3999C13.4091 14.3999 15.2 12.609 15.2 10.3999C15.2 8.19076 13.4091 6.3999 11.2 6.3999C8.99086 6.3999 7.2 8.19076 7.2 10.3999C7.2 12.609 8.99086 14.3999 11.2 14.3999Z" fill="black"/>
</svg>
